Coordinates
version=1
nRows=11
nColumns=36
inDegrees=yes

Units are S.I. units (second, meters, Newtons, ...)
If the header above contains a line with 'inDegrees', this indicates whether rotational values are in degrees (yes) or radians (no).

endheader
time	pelvis_tilt	pelvis_list	pelvis_rotation	pelvis_tx	pelvis_ty	pelvis_tz	hip_flexion_r	hip_adduction_r	hip_rotation_r	knee_angle_r	knee_angle_r_beta	ankle_angle_r	subtalar_angle_r	mtp_angle_r	hip_flexion_l	hip_adduction_l	hip_rotation_l	knee_angle_l	knee_angle_l_beta	ankle_angle_l	subtalar_angle_l	mtp_angle_l	lumbar_extension	lumbar_bending	lumbar_rotation	arm_flex_r	arm_add_r	arm_rot_r	elbow_flex_r	pro_sup_r	arm_flex_l	arm_add_l	arm_rot_l	elbow_flex_l	pro_sup_l
      8.90000000	    -23.17927289	     -4.03810448	    302.50179002	     -1.19027867	      1.06413506	      0.54162979	     34.98435413	     27.10366405	      1.21579983	     17.01928509	      0.29704256	      2.98521895	      1.70529670	     -7.49999987	     -4.74262461	     -2.04753058	      5.65946397	     21.69481342	      0.37864592	    -19.46240801	    -11.38280238	     -7.49999987	     -2.17631849	     19.73980897	      4.05119069	    -18.95409244	    -11.74402902	    -16.56635380	     89.79286901	     78.28529261	     20.10624806	    -18.02950742	     26.47312113	     30.86113916	     79.66743389
      8.91666670	    -24.62168990	     -5.84464019	    304.43088362	     -1.17340809	      1.06180292	      0.55601742	     34.89611645	     28.32890503	      0.68107443	     19.37187236	      0.33810296	      5.22624753	     -1.73475808	     -7.49999987	     -3.37060205	     -4.16447631	      1.58430086	     23.15699740	      0.40416585	    -25.06599006	     -7.93718290	     -7.49999987	     -2.18907820	     22.34131031	      3.87186161	    -21.32648157	    -13.33922581	    -18.66559274	     89.65835842	     76.65046114	     20.39710974	    -16.98926996	     25.75596203	     30.76265056	     76.77780916
      8.93333330	    -25.40256912	     -7.18335681	    306.13001578	     -1.15938802	      1.05962033	      0.56964476	     34.44369416	     29.10715227	      0.33764304	     21.26341468	      0.37111660	      7.19939109	     -5.56957890	     -7.49999987	     -1.35844848	     -5.54167894	     -1.84439277	     25.51072819	      0.44524620	    -30.57402516	     -4.72050683	     -7.49999987	     -2.18232004	     23.90652261	      4.35612551	    -23.33549037	    -14.24979414	    -20.92621537	     88.92955002	     75.77835101	     20.89776849	    -15.85808595	     25.84862164	     30.52537732	     74.90571228
      8.95000000	    -25.27207025	     -7.76646508	    307.15244440	     -1.15110572	      1.06041887	      0.58282409	     33.35158637	     29.43225296	      0.91827246	     22.03646516	      0.38460887	      8.26305416	     -9.46240815	     -7.49999987	      1.37016484	     -5.99289922	     -5.40996054	     28.81176031	      0.50286008	    -35.87050517	     -2.19593744	     -7.49999987	     -2.41015525	     24.17760624	      4.92096055	    -24.57817646	    -15.06248931	    -22.68917966	     91.07499030	     75.59470054	     20.77601477	    -15.37488616	     25.40446104	     30.92184476	     73.42457325
      8.96666670	    -24.92268076	     -7.86502943	    307.44929645	     -1.14376783	      1.06482245	      0.59583221	     32.10743569	     29.54264508	      1.82756803	     22.54905949	      0.39355533	      7.56421123	    -15.39389983	     -7.49999987	      4.36669782	     -6.08277471	     -9.22258487	     31.57503317	      0.55108829	    -38.57310877	     -1.03004213	     -7.49999987	     -2.88571431	     23.98022315	      5.10226824	    -24.44286329	    -16.23300133	    -22.91165296	     92.32366198	     75.03884671	     19.79072771	    -15.62598002	     24.22186703	     31.90918173	     71.91732842
      8.98333330	    -24.68214169	     -7.76373695	    306.91246898	     -1.13175778	      1.07026533	      0.60953097	     30.66520296	     29.47509998	      2.44497637	     23.37085217	      0.40789832	      3.40034897	    -27.09700954	     -7.49999987	      7.04183276	     -6.35381614	    -13.26064988	     33.72591235	      0.58862821	    -37.93517952	     -0.45047237	     -7.49999987	     -3.50915380	     23.82057565	      5.83050089	    -23.90688683	    -17.38971608	    -23.92024151	     93.74653230	     79.03659788	     18.15256401	    -15.48049445	     21.19041494	     33.05346365	     73.42137753
      9.00000000	    -24.52658453	     -7.79663441	    309.14809562	     -1.11868602	      1.07288351	      0.62168864	     31.07379524	     29.75357055	      1.76892556	     23.94734074	      0.41795994	      6.81926264	    -22.61073877	     -7.49999987	      8.53196033	     -6.12302135	    -15.58759881	     33.15299967	      0.57862900	    -33.49848207	      0.22053206	     -7.49999987	     -2.94587322	     23.21572116	      4.64253068	    -23.50464237	    -17.19819630	    -24.44530172	     88.91292026	     77.50238752	     18.01468098	    -15.27912506	     20.62665310	     32.38278363	     72.44972113
      9.01666670	    -23.82855353	     -8.09139430	    311.24821126	     -1.10771303	      1.07340542	      0.63389035	     30.48799745	     29.84229864	      1.44151605	     25.05421155	      0.43727848	     10.66751939	    -15.20799833	     -7.49999987	      9.74473298	     -5.87011411	    -18.00589388	     33.05338067	      0.57689032	    -29.46496038	      0.70660241	     -7.49999987	     -3.24954902	     22.57993875	      3.73632331	    -22.45954658	    -16.86986760	    -24.08270353	     82.95663271	     75.93106029	     17.74174563	    -15.24670909	     20.58568204	     31.97617191	     71.28994505
      9.03333330	    -23.24969269	     -7.96061023	    311.97491601	     -1.09893597	      1.07404040	      0.64633382	     29.36922401	     29.87297365	      1.45661260	     25.50309852	      0.44511304	     13.00378225	    -10.78467934	     -7.49999987	     11.44520878	     -6.06497495	    -21.01887207	     33.23100917	      0.57999052	    -25.49842088	      1.20484575	     -7.49999987	     -4.23909367	     21.74729008	      4.32470046	    -21.10416586	    -16.67986732	    -23.57172930	     77.93754543	     75.61650329	     17.11144412	    -15.02170611	     20.04622140	     32.27654274	     70.95231714
      9.05000000	    -22.63661390	     -7.47082683	    310.45439142	     -1.08910632	      1.07738644	      0.66126522	     27.07273598	     29.88579643	      1.63878076	     25.17332028	      0.43935732	     12.61524745	    -10.19606585	     -7.49999987	     14.00835427	     -6.75461567	    -25.06462330	     34.08577834	      0.59490906	    -19.18727619	      2.98938212	     -7.49999987	     -5.68089598	     20.67103072	      5.98914042	    -18.17254352	    -16.83633283	    -21.18995058	     70.71769747	     75.14489025	     15.34050299	    -14.81105249	     18.66391310	     32.58918921	     70.28526517
      9.06666670	    -22.32022145	     -6.85085156	    307.84229859	     -1.07586605	      1.08261555	      0.67659858	     24.50081965	     29.89474007	      1.44595647	     25.43700567	      0.44395950	     12.36367252	     -9.84689779	     -7.49999987	     16.72896632	     -8.17265264	    -29.29635425	     33.62765052	      0.58691322	    -11.12581234	      5.68652697	     -7.49999987	     -7.07216917	     19.90974790	      5.69348352	    -12.98387418	    -18.20016344	    -15.51193743	     63.96673894	     80.27361439	      9.85165864	    -14.14192391	      7.97877642	     35.70942037	     78.56947143
